<?xml version="1.0" encoding="UTF-8" standalone="no"?>
<!DOCTYPE svg PUBLIC "-//W3C//DTD SVG 1.1//EN"
 "http://www.w3.org/Graphics/SVG/1.1/DTD/svg11.dtd">
<!-- Generated by graphviz version 2.38.0 (20140413.2041)
 -->
<!-- Title: %3 Pages: 1 -->
<svg width="546pt" height="872pt"
 viewBox="0.00 0.00 545.70 872.29" xmlns="http://www.w3.org/2000/svg" xmlns:xlink="http://www.w3.org/1999/xlink">
<g id="graph0" class="graph" transform="scale(1 1) rotate(0) translate(4 868.294)">
<title>%3</title>
<polygon fill="white" stroke="none" points="-4,4 -4,-868.294 541.695,-868.294 541.695,4 -4,4"/>
<!-- start -->
<g id="node1" class="node"><title>start</title>
<ellipse fill="none" stroke="black" cx="228.249" cy="-838.838" rx="82.5487" ry="25.4118"/>
<text text-anchor="middle" x="228.249" y="-841.638" font-family="Times,serif" font-size="14.00">Client is invoked</text>
<text text-anchor="middle" x="228.249" y="-827.638" font-family="Times,serif" font-size="14.00">to download a file</text>
</g>
<!-- request_alternate_urls -->
<g id="node2" class="node"><title>request_alternate_urls</title>
<ellipse fill="none" stroke="black" cx="228.249" cy="-750.926" rx="111.244" ry="25.4118"/>
<text text-anchor="middle" x="228.249" y="-753.726" font-family="Times,serif" font-size="14.00">Request alternate URLs</text>
<text text-anchor="middle" x="228.249" y="-739.726" font-family="Times,serif" font-size="14.00">from metadata repository</text>
</g>
<!-- start&#45;&gt;request_alternate_urls -->
<g id="edge1" class="edge"><title>start&#45;&gt;request_alternate_urls</title>
<path fill="none" stroke="black" d="M228.249,-812.988C228.249,-804.725 228.249,-795.367 228.249,-786.504"/>
<polygon fill="black" stroke="black" points="231.749,-786.423 228.249,-776.423 224.749,-786.423 231.749,-786.423"/>
</g>
<!-- append_defaults -->
<g id="node3" class="node"><title>append_defaults</title>
<ellipse fill="none" stroke="black" cx="228.249" cy="-663.014" rx="114.702" ry="25.4118"/>
<text text-anchor="middle" x="228.249" y="-665.814" font-family="Times,serif" font-size="14.00">Append original URL and</text>
<text text-anchor="middle" x="228.249" y="-651.814" font-family="Times,serif" font-size="14.00">default mechanism to list</text>
</g>
<!-- request_alternate_urls&#45;&gt;append_defaults -->
<g id="edge2" class="edge"><title>request_alternate_urls&#45;&gt;append_defaults</title>
<path fill="none" stroke="black" d="M228.249,-725.077C228.249,-716.813 228.249,-707.455 228.249,-698.593"/>
<polygon fill="black" stroke="black" points="231.749,-698.511 228.249,-688.511 224.749,-698.511 231.749,-698.511"/>
</g>
<!-- first_url -->
<g id="node4" class="node"><title>first_url</title>
<ellipse fill="none" stroke="black" cx="228.249" cy="-575.103" rx="115.498" ry="25.4118"/>
<text text-anchor="middle" x="228.249" y="-577.903" font-family="Times,serif" font-size="14.00">Select first</text>
<text text-anchor="middle" x="228.249" y="-563.903" font-family="Times,serif" font-size="14.00">URL, mechanism, options</text>
</g>
<!-- append_defaults&#45;&gt;first_url -->
<g id="edge3" class="edge"><title>append_defaults&#45;&gt;first_url</title>
<path fill="none" stroke="black" d="M228.249,-637.165C228.249,-628.901 228.249,-619.544 228.249,-610.681"/>
<polygon fill="black" stroke="black" points="231.749,-610.599 228.249,-600.599 224.749,-610.599 231.749,-610.599"/>
</g>
<!-- attempt_transfer -->
<g id="node5" class="node"><title>attempt_transfer</title>
<ellipse fill="none" stroke="black" cx="228.249" cy="-487.191" rx="134.404" ry="25.4118"/>
<text text-anchor="middle" x="228.249" y="-489.991" font-family="Times,serif" font-size="14.00">Attempt transfer with specified</text>
<text text-anchor="middle" x="228.249" y="-475.991" font-family="Times,serif" font-size="14.00">URL, mechanism, options</text>
</g>
<!-- first_url&#45;&gt;attempt_transfer -->
<g id="edge4" class="edge"><title>first_url&#45;&gt;attempt_transfer</title>
<path fill="none" stroke="black" d="M228.249,-549.253C228.249,-540.99 228.249,-531.632 228.249,-522.769"/>
<polygon fill="black" stroke="black" points="231.749,-522.688 228.249,-512.688 224.749,-522.688 231.749,-522.688"/>
</g>
<!-- is_checksum_available -->
<g id="node7" class="node"><title>is_checksum_available</title>
<ellipse fill="none" stroke="black" cx="348.249" cy="-393.735" rx="92.2324" ry="18"/>
<text text-anchor="middle" x="348.249" y="-389.535" font-family="Times,serif" font-size="14.00">Is checksum available?</text>
</g>
<!-- attempt_transfer&#45;&gt;is_checksum_available -->
<g id="edge5" class="edge"><title>attempt_transfer&#45;&gt;is_checksum_available</title>
<path fill="none" stroke="black" d="M259.464,-462.401C277.487,-448.665 300.051,-431.468 317.922,-417.848"/>
<polygon fill="black" stroke="black" points="320.445,-420.326 326.277,-411.48 316.202,-414.758 320.445,-420.326"/>
<text text-anchor="middle" x="325.411" y="-432.535" font-family="Times,serif" font-size="14.00">Success</text>
</g>
<!-- report_failure -->
<g id="node8" class="node"><title>report_failure</title>
<ellipse fill="none" stroke="black" cx="233.249" cy="-214.279" rx="89.8085" ry="25.4118"/>
<text text-anchor="middle" x="233.249" y="-217.079" font-family="Times,serif" font-size="14.00">Report failure to</text>
<text text-anchor="middle" x="233.249" y="-203.079" font-family="Times,serif" font-size="14.00">metadata repository</text>
</g>
<!-- attempt_transfer&#45;&gt;report_failure -->
<g id="edge6" class="edge"><title>attempt_transfer&#45;&gt;report_failure</title>
<path fill="none" stroke="black" d="M228.701,-461.671C229.593,-413.338 231.581,-305.637 232.608,-250.014"/>
<polygon fill="black" stroke="black" points="236.108,-250.001 232.794,-239.938 229.11,-249.872 236.108,-250.001"/>
<text text-anchor="middle" x="251.076" y="-346.535" font-family="Times,serif" font-size="14.00">Failure</text>
</g>
<!-- next_url -->
<g id="node6" class="node"><title>next_url</title>
<ellipse fill="none" stroke="black" cx="115.249" cy="-25.4558" rx="115.498" ry="25.4118"/>
<text text-anchor="middle" x="115.249" y="-28.2558" font-family="Times,serif" font-size="14.00">Select next</text>
<text text-anchor="middle" x="115.249" y="-14.2558" font-family="Times,serif" font-size="14.00">URL, mechanism, options</text>
</g>
<!-- next_url&#45;&gt;attempt_transfer -->
<g id="edge10" class="edge"><title>next_url&#45;&gt;attempt_transfer</title>
<path fill="none" stroke="black" d="M115.249,-51.252C115.249,-71.2576 115.249,-100.124 115.249,-125.368 115.249,-394.735 115.249,-394.735 115.249,-394.735 115.249,-423.294 137.327,-444.475 161.966,-459.22"/>
<polygon fill="black" stroke="black" points="160.325,-462.312 170.756,-464.169 163.759,-456.213 160.325,-462.312"/>
</g>
<!-- verify_checksum -->
<g id="node11" class="node"><title>verify_checksum</title>
<ellipse fill="none" stroke="black" cx="333.249" cy="-307.735" rx="69.558" ry="18"/>
<text text-anchor="middle" x="333.249" y="-303.535" font-family="Times,serif" font-size="14.00">Verify checksum</text>
</g>
<!-- is_checksum_available&#45;&gt;verify_checksum -->
<g id="edge11" class="edge"><title>is_checksum_available&#45;&gt;verify_checksum</title>
<path fill="none" stroke="black" d="M345.213,-375.736C343.173,-364.313 340.44,-349.009 338.102,-335.911"/>
<polygon fill="black" stroke="black" points="341.535,-335.226 336.331,-325.997 334.644,-336.456 341.535,-335.226"/>
<text text-anchor="middle" x="352.438" y="-346.535" font-family="Times,serif" font-size="14.00">Yes</text>
</g>
<!-- report_timing -->
<g id="node12" class="node"><title>report_timing</title>
<ellipse fill="none" stroke="black" cx="439.249" cy="-214.279" rx="98.3934" ry="25.4118"/>
<text text-anchor="middle" x="439.249" y="-217.079" font-family="Times,serif" font-size="14.00">Report transfer rate to</text>
<text text-anchor="middle" x="439.249" y="-203.079" font-family="Times,serif" font-size="14.00">metadata repository</text>
</g>
<!-- is_checksum_available&#45;&gt;report_timing -->
<g id="edge12" class="edge"><title>is_checksum_available&#45;&gt;report_timing</title>
<path fill="none" stroke="black" d="M369.098,-376.098C383.303,-363.673 401.43,-345.486 412.249,-325.735 425.103,-302.269 431.914,-272.689 435.478,-250.048"/>
<polygon fill="black" stroke="black" points="438.984,-250.259 436.938,-239.864 432.054,-249.266 438.984,-250.259"/>
<text text-anchor="middle" x="435.804" y="-303.535" font-family="Times,serif" font-size="14.00">No</text>
</g>
<!-- remaining_urls -->
<g id="node9" class="node"><title>remaining_urls</title>
<ellipse fill="none" stroke="black" cx="233.249" cy="-126.368" rx="79.4775" ry="25.4118"/>
<text text-anchor="middle" x="233.249" y="-129.168" font-family="Times,serif" font-size="14.00">Are there URLs</text>
<text text-anchor="middle" x="233.249" y="-115.168" font-family="Times,serif" font-size="14.00">remaining to try?</text>
</g>
<!-- report_failure&#45;&gt;remaining_urls -->
<g id="edge7" class="edge"><title>report_failure&#45;&gt;remaining_urls</title>
<path fill="none" stroke="black" d="M233.249,-188.43C233.249,-180.166 233.249,-170.809 233.249,-161.946"/>
<polygon fill="black" stroke="black" points="236.749,-161.864 233.249,-151.864 229.749,-161.864 236.749,-161.864"/>
</g>
<!-- remaining_urls&#45;&gt;next_url -->
<g id="edge8" class="edge"><title>remaining_urls&#45;&gt;next_url</title>
<path fill="none" stroke="black" d="M205.881,-102.427C189.703,-88.8664 169.022,-71.5303 151.501,-56.8435"/>
<polygon fill="black" stroke="black" points="153.613,-54.0467 143.7,-50.305 149.116,-59.4114 153.613,-54.0467"/>
<text text-anchor="middle" x="192.438" y="-71.7117" font-family="Times,serif" font-size="14.00">Yes</text>
</g>
<!-- done_failure -->
<g id="node10" class="node"><title>done_failure</title>
<ellipse fill="none" stroke="black" cx="310.249" cy="-25.4558" rx="61.8563" ry="18"/>
<text text-anchor="middle" x="310.249" y="-21.2558" font-family="Times,serif" font-size="14.00">Done &#45; Failure</text>
</g>
<!-- remaining_urls&#45;&gt;done_failure -->
<g id="edge9" class="edge"><title>remaining_urls&#45;&gt;done_failure</title>
<path fill="none" stroke="black" d="M251.888,-101.424C263.755,-86.1797 279.089,-66.4824 291.061,-51.1038"/>
<polygon fill="black" stroke="black" points="293.942,-53.1011 297.323,-43.0602 288.418,-48.8011 293.942,-53.1011"/>
<text text-anchor="middle" x="285.804" y="-71.7117" font-family="Times,serif" font-size="14.00">No</text>
</g>
<!-- verify_checksum&#45;&gt;report_failure -->
<g id="edge14" class="edge"><title>verify_checksum&#45;&gt;report_failure</title>
<path fill="none" stroke="black" d="M314.907,-289.961C301.436,-277.641 282.758,-260.558 266.664,-245.839"/>
<polygon fill="black" stroke="black" points="268.747,-243.001 259.005,-238.835 264.023,-248.167 268.747,-243.001"/>
<text text-anchor="middle" x="312.076" y="-260.535" font-family="Times,serif" font-size="14.00">Failure</text>
</g>
<!-- verify_checksum&#45;&gt;report_timing -->
<g id="edge13" class="edge"><title>verify_checksum&#45;&gt;report_timing</title>
<path fill="none" stroke="black" d="M348.477,-289.698C357.525,-279.936 369.444,-267.686 380.925,-257.735 386.075,-253.271 391.671,-248.786 397.291,-244.491"/>
<polygon fill="black" stroke="black" points="399.58,-247.15 405.493,-238.359 395.388,-241.544 399.58,-247.15"/>
<text text-anchor="middle" x="403.411" y="-260.535" font-family="Times,serif" font-size="14.00">Success</text>
</g>
<!-- done_success -->
<g id="node13" class="node"><title>done_success</title>
<ellipse fill="none" stroke="black" cx="439.249" cy="-126.368" rx="64.7545" ry="18"/>
<text text-anchor="middle" x="439.249" y="-122.168" font-family="Times,serif" font-size="14.00">Done &#45; Success</text>
</g>
<!-- report_timing&#45;&gt;done_success -->
<g id="edge15" class="edge"><title>report_timing&#45;&gt;done_success</title>
<path fill="none" stroke="black" d="M439.249,-188.43C439.249,-177.874 439.249,-165.533 439.249,-154.719"/>
<polygon fill="black" stroke="black" points="442.749,-154.537 439.249,-144.537 435.749,-154.537 442.749,-154.537"/>
</g>
</g>
</svg>
