<?xml version="1.0" encoding="UTF-8" standalone="no"?>
<!DOCTYPE svg PUBLIC "-//W3C//DTD SVG 1.1//EN"
 "http://www.w3.org/Graphics/SVG/1.1/DTD/svg11.dtd">
<!-- Generated by graphviz version 2.38.0 (20140413.2041)
 -->
<!-- Title: %3 Pages: 1 -->
<svg width="378pt" height="633pt"
 viewBox="0.00 0.00 377.80 632.53" xmlns="http://www.w3.org/2000/svg" xmlns:xlink="http://www.w3.org/1999/xlink">
<g id="graph0" class="graph" transform="scale(1 1) rotate(0) translate(4 628.534)">
<title>%3</title>
<polygon fill="white" stroke="none" points="-4,4 -4,-628.534 373.803,-628.534 373.803,4 -4,4"/>
<!-- start -->
<g id="node1" class="node"><title>start</title>
<ellipse fill="none" stroke="black" cx="255.129" cy="-599.078" rx="114.847" ry="25.4118"/>
<text text-anchor="middle" x="255.129" y="-601.878" font-family="Times,serif" font-size="14.00">Alternate URLs requested</text>
<text text-anchor="middle" x="255.129" y="-587.878" font-family="Times,serif" font-size="14.00">for a file</text>
</g>
<!-- select_sources -->
<g id="node2" class="node"><title>select_sources</title>
<ellipse fill="none" stroke="black" cx="255.129" cy="-501.267" rx="113.073" ry="35.2113"/>
<text text-anchor="middle" x="255.129" y="-511.067" font-family="Times,serif" font-size="14.00">Select data sources where</text>
<text text-anchor="middle" x="255.129" y="-497.067" font-family="Times,serif" font-size="14.00">at least one URL matcher</text>
<text text-anchor="middle" x="255.129" y="-483.067" font-family="Times,serif" font-size="14.00">matches the file URL</text>
</g>
<!-- start&#45;&gt;select_sources -->
<g id="edge1" class="edge"><title>start&#45;&gt;select_sources</title>
<path fill="none" stroke="black" d="M255.129,-573.404C255.129,-565.348 255.129,-556.134 255.129,-547.069"/>
<polygon fill="black" stroke="black" points="258.63,-546.967 255.129,-536.967 251.63,-546.967 258.63,-546.967"/>
</g>
<!-- for_each_source -->
<g id="node3" class="node"><title>for_each_source</title>
<ellipse fill="none" stroke="black" cx="255.129" cy="-410.912" rx="66.1821" ry="18"/>
<text text-anchor="middle" x="255.129" y="-406.712" font-family="Times,serif" font-size="14.00">For each source</text>
</g>
<!-- select_sources&#45;&gt;for_each_source -->
<g id="edge2" class="edge"><title>select_sources&#45;&gt;for_each_source</title>
<path fill="none" stroke="black" d="M255.129,-465.854C255.129,-456.995 255.129,-447.586 255.129,-439.148"/>
<polygon fill="black" stroke="black" points="258.63,-439.095 255.129,-429.095 251.63,-439.095 258.63,-439.095"/>
</g>
<!-- for_each_transform -->
<g id="node4" class="node"><title>for_each_transform</title>
<ellipse fill="none" stroke="black" cx="144.129" cy="-330.456" rx="95.9629" ry="25.4118"/>
<text text-anchor="middle" x="144.129" y="-333.256" font-family="Times,serif" font-size="14.00">For each transform</text>
<text text-anchor="middle" x="144.129" y="-319.256" font-family="Times,serif" font-size="14.00">configured for source</text>
</g>
<!-- for_each_source&#45;&gt;for_each_transform -->
<g id="edge3" class="edge"><title>for_each_source&#45;&gt;for_each_transform</title>
<path fill="none" stroke="black" d="M232.399,-393.846C218.788,-384.225 201.08,-371.709 185.101,-360.415"/>
<polygon fill="black" stroke="black" points="187.12,-357.556 176.933,-354.642 183.079,-363.272 187.12,-357.556"/>
</g>
<!-- apply_transform -->
<g id="node5" class="node"><title>apply_transform</title>
<ellipse fill="none" stroke="black" cx="126.129" cy="-250" rx="68.6146" ry="18"/>
<text text-anchor="middle" x="126.129" y="-245.8" font-family="Times,serif" font-size="14.00">Apply transform</text>
</g>
<!-- for_each_transform&#45;&gt;apply_transform -->
<g id="edge4" class="edge"><title>for_each_transform&#45;&gt;apply_transform</title>
<path fill="none" stroke="black" d="M138.434,-304.632C136.501,-296.206 134.332,-286.751 132.359,-278.153"/>
<polygon fill="black" stroke="black" points="135.727,-277.182 130.08,-268.217 128.905,-278.747 135.727,-277.182"/>
</g>
<!-- add_url_to_results -->
<g id="node6" class="node"><title>add_url_to_results</title>
<ellipse fill="none" stroke="black" cx="121.129" cy="-177" rx="121.259" ry="18"/>
<text text-anchor="middle" x="121.129" y="-172.8" font-family="Times,serif" font-size="14.00">Add transform output to results</text>
</g>
<!-- apply_transform&#45;&gt;add_url_to_results -->
<g id="edge5" class="edge"><title>apply_transform&#45;&gt;add_url_to_results</title>
<path fill="none" stroke="black" d="M124.919,-231.813C124.354,-223.789 123.668,-214.047 123.036,-205.069"/>
<polygon fill="black" stroke="black" points="126.523,-204.758 122.329,-195.029 119.54,-205.25 126.523,-204.758"/>
</g>
<!-- remaining_sources -->
<g id="node7" class="node"><title>remaining_sources</title>
<ellipse fill="none" stroke="black" cx="226.129" cy="-104" rx="61.8395" ry="18"/>
<text text-anchor="middle" x="226.129" y="-99.8" font-family="Times,serif" font-size="14.00">More sources?</text>
</g>
<!-- add_url_to_results&#45;&gt;remaining_sources -->
<g id="edge6" class="edge"><title>add_url_to_results&#45;&gt;remaining_sources</title>
<path fill="none" stroke="black" d="M145.747,-159.354C160.272,-149.532 178.808,-136.998 194.419,-126.442"/>
<polygon fill="black" stroke="black" points="196.424,-129.312 202.747,-120.811 192.503,-123.513 196.424,-129.312"/>
</g>
<!-- remaining_sources&#45;&gt;for_each_source -->
<g id="edge7" class="edge"><title>remaining_sources&#45;&gt;for_each_source</title>
<path fill="none" stroke="black" d="M243.519,-121.334C255.818,-134.712 270.129,-154.828 270.129,-176 270.129,-331.456 270.129,-331.456 270.129,-331.456 270.129,-348.92 266.499,-368.189 262.811,-383.26"/>
<polygon fill="black" stroke="black" points="259.421,-382.39 260.292,-392.949 266.195,-384.151 259.421,-382.39"/>
<text text-anchor="middle" x="280.318" y="-245.8" font-family="Times,serif" font-size="14.00">Yes</text>
</g>
<!-- output_results -->
<g id="node8" class="node"><title>output_results</title>
<ellipse fill="none" stroke="black" cx="226.129" cy="-18" rx="59.9445" ry="18"/>
<text text-anchor="middle" x="226.129" y="-13.8" font-family="Times,serif" font-size="14.00">Output results</text>
</g>
<!-- remaining_sources&#45;&gt;output_results -->
<g id="edge8" class="edge"><title>remaining_sources&#45;&gt;output_results</title>
<path fill="none" stroke="black" d="M226.129,-85.5951C226.129,-74.2572 226.129,-59.2271 226.129,-46.3153"/>
<polygon fill="black" stroke="black" points="229.63,-46.0951 226.129,-36.0952 222.63,-46.0952 229.63,-46.0951"/>
<text text-anchor="middle" x="234.685" y="-56.8" font-family="Times,serif" font-size="14.00">No</text>
</g>
</g>
</svg>
