<?xml version="1.0" encoding="UTF-8" standalone="no"?>
<!DOCTYPE svg PUBLIC "-//W3C//DTD SVG 1.1//EN"
 "http://www.w3.org/Graphics/SVG/1.1/DTD/svg11.dtd">
<!-- Generated by graphviz version 2.38.0 (20140413.2041)
 -->
<!-- Title: %3 Pages: 1 -->
<svg width="424pt" height="886pt"
 viewBox="0.00 0.00 424.42 885.89" xmlns="http://www.w3.org/2000/svg" xmlns:xlink="http://www.w3.org/1999/xlink">
<g id="graph0" class="graph" transform="scale(1 1) rotate(0) translate(4 881.891)">
<title>%3</title>
<polygon fill="white" stroke="none" points="-4,4 -4,-881.891 420.422,-881.891 420.422,4 -4,4"/>
<!-- user -->
<g id="node1" class="node"><title>user</title>
<text text-anchor="middle" x="295.711" y="-862.691" font-family="Times,serif" font-size="14.00">User attempts to transfer a data file</text>
<text text-anchor="middle" x="295.711" y="-848.691" font-family="Times,serif" font-size="14.00">using the BDSS transfer client</text>
</g>
<!-- start -->
<g id="node2" class="node"><title>start</title>
<ellipse fill="none" stroke="black" cx="295.711" cy="-779.436" rx="120.922" ry="25.4118"/>
<text text-anchor="middle" x="295.711" y="-782.236" font-family="Times,serif" font-size="14.00">Alternate sources requested</text>
<text text-anchor="middle" x="295.711" y="-768.236" font-family="Times,serif" font-size="14.00">for the data file</text>
</g>
<!-- user&#45;&gt;start -->
<g id="edge1" class="edge"><title>user&#45;&gt;start</title>
<path fill="none" stroke="black" d="M295.711,-841.868C295.711,-834.075 295.711,-824.538 295.711,-815.325"/>
<polygon fill="black" stroke="black" points="299.211,-815.17 295.711,-805.17 292.211,-815.17 299.211,-815.17"/>
</g>
<!-- select_sources -->
<g id="node3" class="node"><title>select_sources</title>
<ellipse fill="none" stroke="black" cx="295.711" cy="-681.624" rx="113.07" ry="35.2113"/>
<text text-anchor="middle" x="295.711" y="-691.424" font-family="Times,serif" font-size="14.00">Select data sources with</text>
<text text-anchor="middle" x="295.711" y="-677.424" font-family="Times,serif" font-size="14.00">at least one URL matcher</text>
<text text-anchor="middle" x="295.711" y="-663.424" font-family="Times,serif" font-size="14.00">that matches the file URL</text>
</g>
<!-- start&#45;&gt;select_sources -->
<g id="edge2" class="edge"><title>start&#45;&gt;select_sources</title>
<path fill="none" stroke="black" d="M295.711,-753.762C295.711,-745.705 295.711,-736.491 295.711,-727.426"/>
<polygon fill="black" stroke="black" points="299.211,-727.325 295.711,-717.325 292.211,-727.325 299.211,-727.325"/>
</g>
<!-- select_first_source -->
<g id="node4" class="node"><title>select_first_source</title>
<ellipse fill="none" stroke="black" cx="295.711" cy="-583.813" rx="56.2258" ry="25.4118"/>
<text text-anchor="middle" x="295.711" y="-586.613" font-family="Times,serif" font-size="14.00">Select first</text>
<text text-anchor="middle" x="295.711" y="-572.613" font-family="Times,serif" font-size="14.00">data source</text>
</g>
<!-- select_sources&#45;&gt;select_first_source -->
<g id="edge3" class="edge"><title>select_sources&#45;&gt;select_first_source</title>
<path fill="none" stroke="black" d="M295.711,-646.034C295.711,-637.422 295.711,-628.186 295.711,-619.566"/>
<polygon fill="black" stroke="black" points="299.211,-619.44 295.711,-609.44 292.211,-619.44 299.211,-619.44"/>
</g>
<!-- select_first_transform -->
<g id="node5" class="node"><title>select_first_transform</title>
<ellipse fill="none" stroke="black" cx="295.711" cy="-495.902" rx="89.6826" ry="25.4118"/>
<text text-anchor="middle" x="295.711" y="-498.702" font-family="Times,serif" font-size="14.00">Select source&#39;s </text>
<text text-anchor="middle" x="295.711" y="-484.702" font-family="Times,serif" font-size="14.00">first URL transform</text>
</g>
<!-- select_first_source&#45;&gt;select_first_transform -->
<g id="edge4" class="edge"><title>select_first_source&#45;&gt;select_first_transform</title>
<path fill="none" stroke="black" d="M295.711,-557.964C295.711,-549.7 295.711,-540.343 295.711,-531.48"/>
<polygon fill="black" stroke="black" points="299.211,-531.398 295.711,-521.398 292.211,-531.398 299.211,-531.398"/>
</g>
<!-- apply_transform -->
<g id="node7" class="node"><title>apply_transform</title>
<ellipse fill="none" stroke="black" cx="205.711" cy="-415.446" rx="68.6146" ry="18"/>
<text text-anchor="middle" x="205.711" y="-411.246" font-family="Times,serif" font-size="14.00">Apply transform</text>
</g>
<!-- select_first_transform&#45;&gt;apply_transform -->
<g id="edge6" class="edge"><title>select_first_transform&#45;&gt;apply_transform</title>
<path fill="none" stroke="black" d="M268.708,-471.362C257.181,-461.314 243.768,-449.621 232.288,-439.614"/>
<polygon fill="black" stroke="black" points="234.534,-436.929 224.697,-432.996 229.935,-442.205 234.534,-436.929"/>
</g>
<!-- select_next_source -->
<g id="node6" class="node"><title>select_next_source</title>
<ellipse fill="none" stroke="black" cx="333.711" cy="-35.3553" rx="56.2258" ry="25.4118"/>
<text text-anchor="middle" x="333.711" y="-38.1553" font-family="Times,serif" font-size="14.00">Select next</text>
<text text-anchor="middle" x="333.711" y="-24.1553" font-family="Times,serif" font-size="14.00">data source</text>
</g>
<!-- select_next_source&#45;&gt;select_first_transform -->
<g id="edge5" class="edge"><title>select_next_source&#45;&gt;select_first_transform</title>
<path fill="none" stroke="black" d="M333.711,-60.988C333.711,-83.0421 333.711,-116.264 333.711,-145.167 333.711,-416.446 333.711,-416.446 333.711,-416.446 333.711,-432.431 327.242,-448.582 319.642,-462.04"/>
<polygon fill="black" stroke="black" points="316.466,-460.528 314.266,-470.891 322.449,-464.162 316.466,-460.528"/>
</g>
<!-- add_url_to_results -->
<g id="node8" class="node"><title>add_url_to_results</title>
<ellipse fill="none" stroke="black" cx="205.711" cy="-334.99" rx="97.1962" ry="25.4118"/>
<text text-anchor="middle" x="205.711" y="-337.79" font-family="Times,serif" font-size="14.00">Add transform output</text>
<text text-anchor="middle" x="205.711" y="-323.79" font-family="Times,serif" font-size="14.00">to results</text>
</g>
<!-- apply_transform&#45;&gt;add_url_to_results -->
<g id="edge7" class="edge"><title>apply_transform&#45;&gt;add_url_to_results</title>
<path fill="none" stroke="black" d="M205.711,-397.422C205.711,-389.629 205.711,-380.092 205.711,-370.879"/>
<polygon fill="black" stroke="black" points="209.211,-370.725 205.711,-360.725 202.211,-370.725 209.211,-370.725"/>
</g>
<!-- remaining_transforms -->
<g id="node10" class="node"><title>remaining_transforms</title>
<ellipse fill="none" stroke="black" cx="205.711" cy="-247.078" rx="96.565" ry="25.4118"/>
<text text-anchor="middle" x="205.711" y="-249.878" font-family="Times,serif" font-size="14.00">Current data source</text>
<text text-anchor="middle" x="205.711" y="-235.878" font-family="Times,serif" font-size="14.00">has more transforms?</text>
</g>
<!-- add_url_to_results&#45;&gt;remaining_transforms -->
<g id="edge9" class="edge"><title>add_url_to_results&#45;&gt;remaining_transforms</title>
<path fill="none" stroke="black" d="M205.711,-309.141C205.711,-300.877 205.711,-291.519 205.711,-282.656"/>
<polygon fill="black" stroke="black" points="209.211,-282.575 205.711,-272.575 202.211,-282.575 209.211,-282.575"/>
</g>
<!-- select_next_transform -->
<g id="node9" class="node"><title>select_next_transform</title>
<ellipse fill="none" stroke="black" cx="71.7113" cy="-146.167" rx="71.9231" ry="25.4118"/>
<text text-anchor="middle" x="71.7113" y="-148.967" font-family="Times,serif" font-size="14.00">Select next</text>
<text text-anchor="middle" x="71.7113" y="-134.967" font-family="Times,serif" font-size="14.00">URL transform</text>
</g>
<!-- select_next_transform&#45;&gt;apply_transform -->
<g id="edge8" class="edge"><title>select_next_transform&#45;&gt;apply_transform</title>
<path fill="none" stroke="black" d="M68.0525,-171.839C63.1093,-214.491 59.0909,-302.952 99.7113,-360.446 111.894,-377.69 131.25,-389.773 150.108,-398.067"/>
<polygon fill="black" stroke="black" points="149.006,-401.398 159.586,-401.953 151.662,-394.921 149.006,-401.398"/>
</g>
<!-- remaining_transforms&#45;&gt;select_next_transform -->
<g id="edge10" class="edge"><title>remaining_transforms&#45;&gt;select_next_transform</title>
<path fill="none" stroke="black" d="M174.294,-222.888C155.121,-208.735 130.472,-190.541 110.141,-175.533"/>
<polygon fill="black" stroke="black" points="112.134,-172.654 102.009,-169.531 107.976,-178.286 112.134,-172.654"/>
<text text-anchor="middle" x="161.144" y="-192.422" font-family="Times,serif" font-size="14.00"> &#160;Yes</text>
</g>
<!-- remaining_sources -->
<g id="node11" class="node"><title>remaining_sources</title>
<ellipse fill="none" stroke="black" cx="233.711" cy="-146.167" rx="72.138" ry="25.4118"/>
<text text-anchor="middle" x="233.711" y="-148.967" font-family="Times,serif" font-size="14.00">More matching</text>
<text text-anchor="middle" x="233.711" y="-134.967" font-family="Times,serif" font-size="14.00">data sources?</text>
</g>
<!-- remaining_transforms&#45;&gt;remaining_sources -->
<g id="edge11" class="edge"><title>remaining_transforms&#45;&gt;remaining_sources</title>
<path fill="none" stroke="black" d="M212.633,-221.628C216.065,-209.502 220.269,-194.654 224.016,-181.416"/>
<polygon fill="black" stroke="black" points="227.416,-182.253 226.772,-171.678 220.681,-180.347 227.416,-182.253"/>
<text text-anchor="middle" x="232.766" y="-192.422" font-family="Times,serif" font-size="14.00"> &#160;No</text>
</g>
<!-- remaining_sources&#45;&gt;select_next_source -->
<g id="edge12" class="edge"><title>remaining_sources&#45;&gt;select_next_source</title>
<path fill="none" stroke="black" d="M255.164,-121.824C269.895,-105.795 289.598,-84.3557 305.585,-66.9601"/>
<polygon fill="black" stroke="black" points="308.448,-69.0172 312.637,-59.286 303.294,-64.2806 308.448,-69.0172"/>
<text text-anchor="middle" x="297.144" y="-91.5107" font-family="Times,serif" font-size="14.00"> &#160;Yes</text>
</g>
<!-- output_results -->
<g id="node12" class="node"><title>output_results</title>
<ellipse fill="none" stroke="black" cx="191.711" cy="-35.3553" rx="68.453" ry="35.2113"/>
<text text-anchor="middle" x="191.711" y="-45.1553" font-family="Times,serif" font-size="14.00">Done.</text>
<text text-anchor="middle" x="191.711" y="-31.1553" font-family="Times,serif" font-size="14.00">Send response</text>
<text text-anchor="middle" x="191.711" y="-17.1553" font-family="Times,serif" font-size="14.00">with results</text>
</g>
<!-- remaining_sources&#45;&gt;output_results -->
<g id="edge13" class="edge"><title>remaining_sources&#45;&gt;output_results</title>
<path fill="none" stroke="black" d="M224.286,-120.747C219.609,-108.631 213.818,-93.6283 208.422,-79.6485"/>
<polygon fill="black" stroke="black" points="211.634,-78.2504 204.768,-70.1816 205.104,-80.7711 211.634,-78.2504"/>
<text text-anchor="middle" x="227.766" y="-91.5107" font-family="Times,serif" font-size="14.00"> &#160;No</text>
</g>
</g>
</svg>
